<svg id="Layer_1" data-name="Layer 1" xmlns="http://www.w3.org/2000/svg" viewBox="0 0 1311.52 1580.28"><defs><style>.cls-1{fill:#fff;}.cls-2{fill:#fff031;}.cls-3{fill:#f0f;}</style></defs><title>heycovid-logos</title><path class="cls-1" d="M1000.54,58.13c-103.66-103.66-311-68.42-311,103.66s311,380.08,311,380.08,311-208,311-380.08S1104.2-45.53,1000.54,58.13Z"/><path class="cls-2" d="M865.62,107.57c-3-.84-8.29-1.22-8.58-2.62-.66-3.19.42-7.28,2.07-10.31a39.35,39.35,0,0,1,19.52-18c7.26-3.07,9.76-1,8.93,6.59a31.82,31.82,0,0,0,8.41,26c5.47,6,12.56,7,19,2.14A146.77,146.77,0,0,1,984.71,82.6c7.14-1,11.29-6.23,11.43-13.42.22-10.8-4.46-19.22-12.7-25.9-5.29-4.28-5.13-7.6,1-10.21a39.3,39.3,0,0,1,31.95,0c6.41,2.77,6.61,5.79,1.25,10.08-8.47,6.77-13.26,15.28-12.8,26.39.28,6.91,4.25,12.12,11.12,13a145.44,145.44,0,0,1,70.72,29.39c6,4.67,14,3.37,19-2.36,6.49-7.29,9.32-15.9,8-25.53-1.19-9,3.71-9.76,10.13-6.42,9,4.68,16,11.4,20,20.74a11.47,11.47,0,0,1,0,8.2c-.45,1.06-4.53,1-6.9.75-10.63-1-19.81,2.15-27.14,9.81-5.18,5.42-4.87,12.11.5,19.2a137.07,137.07,0,0,1,25.77,57.34c.48,2.49,1,5,1.24,7.52,1.44,14,11.22,16.48,22.49,13.74,7.54-1.83,13.32-6.3,18-12.37,3.66-4.7,6.75-4.61,9.23.68a38.9,38.9,0,0,1,.11,34.06c-2.32,5-5.84,5.13-9.36.59-6.79-8.77-15.46-13.67-26.73-13.38-6.78.17-12.22,4.45-13.11,11.17a143,143,0,0,1-29.44,70.67c-4.64,5.92-3.55,13.47,1.91,18.58a31.6,31.6,0,0,0,25.86,8.65c8.43-.83,10.47,2.05,6.72,9.78a40.39,40.39,0,0,1-20.58,20.09c-2.45,1.06-6.09,1.44-8.25.33-1.31-.67-1.29-4.85-1.07-7.39.92-10.67-2.33-19.75-10.2-26.92-5.25-4.79-11.53-4.67-17.66.09-17.17,13.36-36.56,21.79-57.73,26.32a70.11,70.11,0,0,1-8.09,1.38c-14.86,1.35-16.17,11.48-14,21.75,1.64,7.74,6.24,13.78,12.55,18.61,4.85,3.71,4.6,7-1,9.49a39.29,39.29,0,0,1-33.55-.26c-5.23-2.42-5.38-5.71-.84-9.25,8.71-6.81,13.8-15.38,13.45-26.7-.21-7-4.78-12.44-11.73-13.31a139.18,139.18,0,0,1-69.66-28.78c-6.6-5.15-14.29-4.06-19.9,2.36-6.25,7.17-8.7,15.56-7.77,25.05.81,8.25-1.9,10.31-9.31,6.81a41.58,41.58,0,0,1-21.07-21.26c-3.06-7-.62-9.8,6.81-9,9.32,1,17.92-1.09,25.2-7.31,6.73-5.76,7.84-13.24,2.54-20.29-15.36-20.46-25.27-43.06-28.41-68.6-1.19-9.73-9.19-14.18-19.92-11.59a33.41,33.41,0,0,0-19.28,12.6c-4.06,5.31-7.66,5-10.32-1.12-4.5-10.36-4.38-21-.43-31.49,2.57-6.79,6.32-7.15,10.88-1.59,6.28,7.64,14,12.41,24.21,12.42,8.38,0,13.9-4.34,15-12.61,3.28-25.28,13-47.76,28.4-68,5.8-7.65,4.75-14.91-2.61-21.14C882.37,108.64,875.57,106.45,865.62,107.57Z"/><path class="cls-2" d="M940.78,186c-9.67,0-16.81-6.94-16.82-16.47,0-9.35,6.85-16.44,16.08-16.6A16.52,16.52,0,0,1,957,169.46,16.25,16.25,0,0,1,940.78,186Z"/><path class="cls-2" d="M954.48,158.37c-2.19-3.7-4.58-6-4.25-7.7s3.17-4.23,5.11-4.43c1.36-.14,4.32,3,4.27,4.67C959.56,152.89,957.1,154.8,954.48,158.37Z"/><path class="cls-1" d="M1054.11,164.46c1.34-28.8-23.45-52.25-53.6-53.59-29.48-1.34-53.6,24.12-53.6,53.59,0,24.12,17.42,44.89,37.52,51.59V325.26h67v-20.1h-33.5v-13.4h33.5v-20.1h-34.17V216.05C1037.36,209.35,1053.44,187.91,1054.11,164.46Zm-54.79,16.6a16.75,16.75,0,1,1,16.75-16.75A16.75,16.75,0,0,1,999.32,181.06Z"/><path class="cls-3" d="M1000.54,1096.54c-103.66-103.66-311-68.42-311,103.66s311,380.08,311,380.08,311-208,311-380.08S1104.2,992.88,1000.54,1096.54Z"/><path class="cls-1" d="M865.62,1146c-3-.84-8.29-1.21-8.58-2.61-.66-3.19.42-7.28,2.07-10.31a39.35,39.35,0,0,1,19.52-18c7.26-3.07,9.76-1,8.93,6.59a31.82,31.82,0,0,0,8.41,26c5.47,6,12.56,7,19,2.14A146.77,146.77,0,0,1,984.71,1121c7.14-1,11.29-6.23,11.43-13.42.22-10.81-4.46-19.22-12.7-25.9-5.29-4.28-5.13-7.6,1-10.21a39.34,39.34,0,0,1,31.95,0c6.41,2.78,6.61,5.8,1.25,10.09-8.47,6.77-13.26,15.28-12.8,26.39.28,6.91,4.25,12.12,11.12,13a145.43,145.43,0,0,1,70.72,29.38c6,4.68,14,3.38,19-2.35,6.49-7.29,9.32-15.9,8-25.53-1.19-9,3.71-9.76,10.13-6.42,9,4.68,16,11.4,20,20.74a11.47,11.47,0,0,1,0,8.2c-.45,1.06-4.53,1-6.9.75-10.63-1-19.81,2.14-27.14,9.81-5.18,5.42-4.87,12.11.5,19.2a137,137,0,0,1,25.77,57.34c.48,2.49,1,5,1.24,7.52,1.44,14,11.22,16.48,22.49,13.74,7.54-1.83,13.32-6.3,18-12.37,3.66-4.7,6.75-4.61,9.23.68a38.9,38.9,0,0,1,.11,34.06c-2.32,5-5.84,5.13-9.36.59-6.79-8.77-15.46-13.67-26.73-13.39-6.78.18-12.22,4.46-13.11,11.17-3.49,26.23-13.1,49.79-29.44,70.67-4.64,5.93-3.55,13.47,1.91,18.59a31.6,31.6,0,0,0,25.86,8.65c8.43-.84,10.47,2,6.72,9.78a40.46,40.46,0,0,1-20.58,20.09c-2.45,1.06-6.09,1.44-8.25.33-1.31-.67-1.29-4.85-1.07-7.39.92-10.67-2.33-19.75-10.2-26.93-5.25-4.79-11.53-4.66-17.66.1-17.17,13.36-36.56,21.79-57.73,26.32a68,68,0,0,1-8.09,1.37c-14.86,1.36-16.17,11.48-14,21.76,1.64,7.73,6.24,13.78,12.55,18.61,4.85,3.71,4.6,7-1,9.49a39.29,39.29,0,0,1-33.55-.26c-5.23-2.42-5.38-5.71-.84-9.26,8.71-6.8,13.8-15.37,13.45-26.69-.21-7-4.78-12.44-11.73-13.31a139.27,139.27,0,0,1-69.66-28.78c-6.6-5.15-14.29-4.06-19.9,2.36-6.25,7.17-8.7,15.56-7.77,25.05.81,8.25-1.9,10.31-9.31,6.81a41.61,41.61,0,0,1-21.07-21.26c-3.06-7-.62-9.8,6.81-9,9.32,1,17.92-1.09,25.2-7.32,6.73-5.75,7.84-13.23,2.54-20.28-15.36-20.46-25.27-43.06-28.41-68.6-1.19-9.73-9.19-14.18-19.92-11.59A33.45,33.45,0,0,0,823.64,1276c-4.06,5.32-7.66,5-10.32-1.11-4.5-10.36-4.38-21-.43-31.49,2.57-6.79,6.32-7.15,10.88-1.6,6.28,7.65,14,12.42,24.21,12.43,8.38,0,13.9-4.34,15-12.61,3.28-25.28,13-47.76,28.4-68,5.8-7.65,4.75-14.91-2.61-21.15C882.37,1147.05,875.57,1144.86,865.62,1146Z"/><path class="cls-1" d="M940.78,1224.43c-9.67,0-16.81-6.94-16.82-16.47,0-9.36,6.85-16.44,16.08-16.6A16.52,16.52,0,0,1,957,1207.87,16.25,16.25,0,0,1,940.78,1224.43Z"/><path class="cls-1" d="M954.48,1196.78c-2.19-3.71-4.58-6-4.25-7.7s3.17-4.23,5.11-4.43c1.36-.14,4.32,3,4.27,4.67C959.56,1191.3,957.1,1193.21,954.48,1196.78Z"/><path class="cls-3" d="M1054.11,1202.87c1.34-28.81-23.45-52.26-53.6-53.59-29.48-1.34-53.6,24.11-53.6,53.59,0,24.12,17.42,44.89,37.52,51.59v109.21h67v-20.1h-33.5v-13.4h33.5v-20.1h-34.17v-55.61C1037.36,1247.76,1053.44,1226.32,1054.11,1202.87Zm-54.79,16.6a16.75,16.75,0,1,1,16.75-16.75A16.75,16.75,0,0,1,999.32,1219.47Z"/><path class="cls-1" d="M311,58.13C207.32-45.53,0-10.29,0,161.79S311,541.87,311,541.87s311-208,311-380.08S414.64-45.53,311,58.13Z"/><path class="cls-2" d="M176.07,106.93c-3-.84-8.3-1.21-8.59-2.61-.66-3.2.42-7.28,2.07-10.31a39.43,39.43,0,0,1,19.52-18c7.26-3.07,9.76-1,8.93,6.59a31.82,31.82,0,0,0,8.42,26c5.46,6,12.55,7,19,2.14A146.89,146.89,0,0,1,295.15,82c7.14-1,11.3-6.22,11.44-13.42.21-10.8-4.47-19.21-12.71-25.89-5.29-4.29-5.13-7.6,1-10.21a39.32,39.32,0,0,1,32,0c6.4,2.78,6.61,5.8,1.24,10.09-8.46,6.76-13.26,15.28-12.8,26.38.28,6.92,4.25,12.13,11.13,13.06a145.3,145.3,0,0,1,70.71,29.38c6.06,4.68,14,3.37,19-2.35,6.48-7.3,9.31-15.9,8-25.53-1.2-9,3.71-9.77,10.13-6.42,9,4.67,16,11.4,20,20.73a11.42,11.42,0,0,1,0,8.2c-.45,1.07-4.53,1-6.9.76-10.63-1-19.8,2.14-27.14,9.81-5.18,5.42-4.86,12.11.51,19.19A137.11,137.11,0,0,1,446.59,193c.49,2.5,1,5,1.25,7.53,1.43,14,11.21,16.48,22.48,13.74,7.54-1.83,13.32-6.3,18.06-12.38,3.66-4.69,6.74-4.6,9.22.69a38.9,38.9,0,0,1,.11,34.06c-2.32,5.05-5.84,5.13-9.35.59-6.79-8.77-15.47-13.67-26.73-13.39-6.79.17-12.22,4.46-13.12,11.17-3.49,26.23-13.09,49.79-29.44,70.67-4.64,5.93-3.55,13.47,1.91,18.59A31.62,31.62,0,0,0,446.85,333c8.42-.84,10.46,2.05,6.71,9.77A40.41,40.41,0,0,1,433,362.82c-2.45,1.06-6.08,1.44-8.25.33-1.3-.67-1.29-4.85-1.07-7.39.92-10.68-2.32-19.75-10.2-26.93-5.25-4.79-11.53-4.67-17.66.1-17.17,13.35-36.55,21.79-57.73,26.32a67.31,67.31,0,0,1-8.09,1.37c-14.86,1.36-16.17,11.48-14,21.75,1.65,7.74,6.24,13.79,12.55,18.62,4.85,3.71,4.6,7-1,9.48a39.29,39.29,0,0,1-33.55-.26c-5.22-2.42-5.38-5.7-.84-9.25,8.71-6.8,13.8-15.38,13.45-26.69-.21-7-4.78-12.44-11.73-13.31a139.23,139.23,0,0,1-69.65-28.78c-6.6-5.15-14.3-4.06-19.9,2.36-6.25,7.17-8.71,15.55-7.77,25,.81,8.26-1.91,10.31-9.32,6.82a41.6,41.6,0,0,1-21.06-21.26c-3.07-7-.62-9.8,6.8-9,9.33,1,17.92-1.09,25.21-7.32,6.73-5.75,7.83-13.24,2.54-20.29-15.37-20.45-25.27-43.05-28.41-68.59-1.2-9.73-9.19-14.18-19.92-11.6a33.5,33.5,0,0,0-19.29,12.6c-4.05,5.31-7.65,5-10.32-1.11-4.5-10.36-4.38-21-.43-31.49,2.57-6.8,6.33-7.15,10.89-1.6,6.27,7.65,14,12.42,24.2,12.42,8.39,0,13.9-4.33,15-12.6,3.28-25.28,13.06-47.76,28.4-68,5.81-7.65,4.76-14.91-2.6-21.15C192.82,108,186,105.82,176.07,106.93ZM296,174.38a37.61,37.61,0,0,0-37.88-37.58c-20.79.06-37.92,17.1-38,37.75s17.51,38.16,38.38,38.07C279,212.52,296,195.19,296,174.38Zm14.82,115.89c2.56,1.59,4.48,3,6.56,4,16.5,8.47,36.11-.82,39.09-18.48.94-5.59-1.32-10-5.85-10.4-5.16-.43-7.6,2.47-8.46,7.58-1,6.26-5.27,9.52-11.38,9.74-6.4.22-10.71-2.83-12.47-9.16-1-3.8-3-6.43-7.2-6.48-4.41-.05-6.51,2.48-7.52,6.69-1.43,6-6.31,9.21-12.71,8.93-6.05-.27-10.41-3.84-11.25-9.89-.67-4.87-3-7.7-7.94-7.47-4.43.21-7.23,4.92-6.32,10.21,1.79,10.42,7.85,17.29,17.88,20.49S302.48,296.71,310.79,290.27Zm83.72-69.68c-8.43,1.43-16.13,2.58-23.74,4.16-1.61.34-2.89,2.3-4.32,3.51,1.28,1.33,2.34,3.37,3.89,3.87,14.94,4.79,30,5.16,44.83-.31,1.41-.53,3.29-2.31,3.28-3.49s-1.92-3.11-3.3-3.44C408.19,223.2,401.14,221.93,394.51,220.59Zm-166,.11c-6.78,1.21-13.71,2.19-20.49,3.8-1.87.45-3.29,2.77-4.91,4.22,1.56,1.3,2.93,3.2,4.73,3.79,14.17,4.62,28.46,4.14,42.65.1,1.78-.5,3.12-2.58,4.67-3.93-1.66-1.45-3.13-3.77-5-4.2C243.17,222.9,236,222,228.55,220.7Z"/><path class="cls-1" d="M296,174.38c0,20.81-17,38.14-37.46,38.24-20.87.09-38.42-17.3-38.38-38.07s17.17-37.69,38-37.75A37.61,37.61,0,0,1,296,174.38Zm-44.75,11a16.23,16.23,0,0,0,16.18-16.55,16.52,16.52,0,0,0-16.92-16.51c-9.22.16-16.09,7.24-16.08,16.6C234.41,178.45,241.56,185.44,251.22,185.38Zm13.7-27.64c2.62-3.57,5.09-5.49,5.14-7.46,0-1.64-2.92-4.81-4.28-4.67-1.94.19-4.76,2.58-5.11,4.43S262.74,154,264.92,157.74Z"/><path class="cls-1" d="M310.79,290.27c-8.31,6.44-17.42,9-27.57,5.8S267.13,286,265.34,275.58c-.91-5.29,1.89-10,6.32-10.21,4.92-.23,7.27,2.6,7.94,7.47.84,6.05,5.2,9.62,11.25,9.89,6.4.28,11.28-2.91,12.71-8.93,1-4.21,3.11-6.74,7.52-6.69,4.16.05,6.15,2.68,7.2,6.48,1.76,6.33,6.07,9.38,12.47,9.16,6.11-.22,10.34-3.48,11.38-9.74.86-5.11,3.3-8,8.46-7.58,4.53.38,6.79,4.81,5.85,10.4-3,17.66-22.59,26.95-39.09,18.48C315.27,293.24,313.35,291.86,310.79,290.27Z"/><path class="cls-2" d="M251.22,185.38c-9.66.06-16.81-6.93-16.82-16.46,0-9.36,6.86-16.44,16.08-16.6a16.52,16.52,0,0,1,16.92,16.51A16.23,16.23,0,0,1,251.22,185.38Z"/><path class="cls-2" d="M264.92,157.74c-2.18-3.71-4.57-6-4.25-7.7s3.17-4.24,5.11-4.43c1.36-.14,4.32,3,4.28,4.67C270,152.25,267.54,154.17,264.92,157.74Z"/><path class="cls-1" d="M400.51,183.92a55.58,55.58,0,0,0-6.17-3.43c-12-5.67-32.62-9.73-62.7,3.08l-3.92-9.2c33.49-14.27,57-9.46,70.89-2.92a62.44,62.44,0,0,1,7.32,4.07Z"/><path class="cls-3" d="M311,1096.54C207.32,992.88,0,1028.12,0,1200.2s311,380.08,311,380.08,311-208,311-380.08S414.64,992.88,311,1096.54Z"/><path class="cls-1" d="M176.07,1145.34c-3-.84-8.3-1.21-8.59-2.61-.66-3.2.42-7.28,2.07-10.31a39.45,39.45,0,0,1,19.52-18c7.26-3.06,9.76-1,8.93,6.6a31.84,31.84,0,0,0,8.42,26c5.46,6,12.55,7,19,2.14a146.89,146.89,0,0,1,69.78-28.79c7.14-1,11.3-6.22,11.44-13.42.21-10.8-4.47-19.21-12.71-25.89-5.29-4.29-5.13-7.6,1-10.21a39.28,39.28,0,0,1,32,0c6.4,2.78,6.61,5.8,1.24,10.09-8.46,6.76-13.26,15.28-12.8,26.38.28,6.92,4.25,12.13,11.13,13.06a145.3,145.3,0,0,1,70.71,29.38c6.06,4.68,14,3.37,19-2.35,6.48-7.3,9.31-15.9,8-25.53-1.2-9,3.71-9.77,10.13-6.42,9,4.67,16,11.4,20,20.73a11.42,11.42,0,0,1,0,8.2c-.45,1.06-4.53,1-6.9.76-10.63-1-19.8,2.14-27.14,9.81-5.18,5.41-4.86,12.11.51,19.19a137.11,137.11,0,0,1,25.76,57.34c.49,2.5,1,5,1.25,7.52,1.43,14,11.21,16.49,22.48,13.75,7.54-1.83,13.32-6.3,18.06-12.38,3.66-4.69,6.74-4.6,9.22.68a38.92,38.92,0,0,1,.11,34.07c-2.32,5.05-5.84,5.13-9.35.59-6.79-8.77-15.47-13.67-26.73-13.39-6.79.17-12.22,4.46-13.12,11.17-3.49,26.23-13.09,49.78-29.44,70.67-4.64,5.92-3.55,13.47,1.91,18.59a31.62,31.62,0,0,0,25.87,8.65c8.42-.84,10.46,2.05,6.71,9.77a40.41,40.41,0,0,1-20.58,20.1c-2.45,1.06-6.08,1.44-8.25.33-1.3-.67-1.29-4.86-1.07-7.39.92-10.68-2.32-19.75-10.2-26.93-5.25-4.79-11.53-4.67-17.66.1-17.17,13.35-36.55,21.79-57.73,26.31A67.34,67.34,0,0,1,330,1395c-14.86,1.36-16.17,11.48-14,21.75,1.65,7.74,6.24,13.79,12.55,18.62,4.85,3.71,4.6,7-1,9.48a39.29,39.29,0,0,1-33.55-.26c-5.22-2.42-5.38-5.7-.84-9.25,8.71-6.81,13.8-15.38,13.45-26.69-.21-7-4.78-12.44-11.73-13.32a139.13,139.13,0,0,1-69.65-28.77c-6.6-5.16-14.3-4.07-19.9,2.36-6.25,7.16-8.71,15.55-7.77,25,.81,8.26-1.91,10.31-9.32,6.82a41.6,41.6,0,0,1-21.06-21.26c-3.07-7-.62-9.8,6.8-9,9.33,1,17.92-1.09,25.21-7.32,6.73-5.75,7.83-13.24,2.54-20.29-15.37-20.45-25.27-43.05-28.41-68.59-1.2-9.73-9.19-14.18-19.92-11.6a33.5,33.5,0,0,0-19.29,12.6c-4.05,5.31-7.65,5-10.32-1.11-4.5-10.36-4.38-21-.43-31.5,2.57-6.79,6.33-7.15,10.89-1.59,6.27,7.65,14,12.41,24.2,12.42,8.39,0,13.9-4.33,15-12.6,3.28-25.28,13.06-47.76,28.4-68,5.81-7.65,4.76-14.92-2.6-21.15C192.82,1146.41,186,1144.23,176.07,1145.34ZM296,1212.79a37.61,37.61,0,0,0-37.88-37.58c-20.79.06-37.92,17.1-38,37.75s17.51,38.16,38.38,38.06C279,1250.93,296,1233.6,296,1212.79Zm14.82,115.89c2.56,1.59,4.48,3,6.56,4,16.5,8.47,36.11-.82,39.09-18.48.94-5.59-1.32-10-5.85-10.4-5.16-.43-7.6,2.47-8.46,7.58-1,6.26-5.27,9.52-11.38,9.74-6.4.22-10.71-2.84-12.47-9.17-1-3.79-3-6.42-7.2-6.47-4.41,0-6.51,2.47-7.52,6.69-1.43,6-6.31,9.21-12.71,8.93-6.05-.27-10.41-3.84-11.25-9.89-.67-4.88-3-7.7-7.94-7.47-4.43.21-7.23,4.92-6.32,10.21,1.79,10.42,7.85,17.29,17.88,20.49S302.48,1335.12,310.79,1328.68ZM394.51,1259c-8.43,1.43-16.13,2.58-23.74,4.16-1.61.34-2.89,2.3-4.32,3.51,1.28,1.33,2.34,3.37,3.89,3.87,14.94,4.79,30,5.15,44.83-.32,1.41-.52,3.29-2.3,3.28-3.48s-1.92-3.11-3.3-3.45C408.19,1261.61,401.14,1260.34,394.51,1259Zm-166,.11c-6.78,1.21-13.71,2.19-20.49,3.8-1.87.44-3.29,2.76-4.91,4.22,1.56,1.29,2.93,3.2,4.73,3.78,14.17,4.63,28.46,4.15,42.65.11,1.78-.51,3.12-2.58,4.67-3.93-1.66-1.45-3.13-3.77-5-4.2C243.17,1261.31,236,1260.36,228.55,1259.11Z"/><path class="cls-3" d="M296,1212.79c0,20.81-17,38.14-37.46,38.23-20.87.1-38.42-17.3-38.38-38.06s17.17-37.69,38-37.75A37.61,37.61,0,0,1,296,1212.79Zm-44.75,11a16.23,16.23,0,0,0,16.18-16.55,16.53,16.53,0,0,0-16.92-16.52c-9.22.16-16.09,7.25-16.08,16.61C234.41,1216.86,241.56,1223.85,251.22,1223.79Zm13.7-27.64c2.62-3.57,5.09-5.49,5.14-7.46,0-1.64-2.92-4.81-4.28-4.67-1.94.19-4.76,2.58-5.11,4.43S262.74,1192.44,264.92,1196.15Z"/><path class="cls-3" d="M310.79,1328.68c-8.31,6.44-17.42,9-27.57,5.8s-16.09-10.07-17.88-20.49c-.91-5.29,1.89-10,6.32-10.21,4.92-.23,7.27,2.59,7.94,7.47.84,6,5.2,9.62,11.25,9.89,6.4.28,11.28-2.91,12.71-8.93,1-4.22,3.11-6.74,7.52-6.69,4.16,0,6.15,2.68,7.2,6.47,1.76,6.33,6.07,9.39,12.47,9.17,6.11-.22,10.34-3.48,11.38-9.74.86-5.11,3.3-8,8.46-7.58,4.53.38,6.79,4.81,5.85,10.4-3,17.66-22.59,27-39.09,18.48C315.27,1331.65,313.35,1330.27,310.79,1328.68Z"/><path class="cls-1" d="M251.22,1223.79c-9.66.06-16.81-6.93-16.82-16.46,0-9.36,6.86-16.45,16.08-16.61a16.53,16.53,0,0,1,16.92,16.52A16.23,16.23,0,0,1,251.22,1223.79Z"/><path class="cls-1" d="M264.92,1196.15c-2.18-3.71-4.57-6-4.25-7.7s3.17-4.24,5.11-4.43c1.36-.14,4.32,3,4.28,4.67C270,1190.66,267.54,1192.58,264.92,1196.15Z"/><path class="cls-3" d="M400.51,1222.33a54,54,0,0,0-6.17-3.43c-12-5.67-32.62-9.73-62.7,3.08l-3.92-9.2c33.49-14.27,57-9.46,70.88-2.92a61.77,61.77,0,0,1,7.33,4.07Z"/></svg>