<svg id="Layer_1" data-name="Layer 1" xmlns="http://www.w3.org/2000/svg" viewBox="0 0 621.96 541.87"><defs><style>.cls-1{fill:#fff42c;}.cls-2{fill:#f0f;}</style></defs><title>heycovid-logos</title><path class="cls-1" d="M311,58.13C207.32-45.53,0-10.29,0,161.79S311,541.87,311,541.87s311-208,311-380.08S414.64-45.53,311,58.13Z"/><path class="cls-2" d="M176.07,107.57c-3-.84-8.3-1.22-8.59-2.62-.66-3.19.42-7.28,2.07-10.31a39.43,39.43,0,0,1,19.52-18c7.26-3.07,9.76-1,8.93,6.59a31.82,31.82,0,0,0,8.42,26c5.46,6,12.55,7,19,2.14A146.77,146.77,0,0,1,295.15,82.6c7.14-1,11.3-6.23,11.44-13.42.21-10.8-4.47-19.22-12.71-25.9-5.29-4.28-5.13-7.6,1-10.21a39.32,39.32,0,0,1,32,0c6.4,2.77,6.61,5.79,1.24,10.08-8.46,6.77-13.26,15.28-12.8,26.39.28,6.91,4.25,12.12,11.13,13a145.41,145.41,0,0,1,70.71,29.39c6.06,4.67,14,3.37,19-2.36,6.48-7.29,9.31-15.9,8-25.53-1.2-9,3.71-9.76,10.13-6.42,9,4.68,16,11.4,20,20.74a11.42,11.42,0,0,1,0,8.2c-.45,1.06-4.53,1-6.9.75-10.63-1-19.8,2.15-27.14,9.81-5.18,5.42-4.86,12.11.51,19.2a137.05,137.05,0,0,1,25.76,57.34c.49,2.49,1,5,1.25,7.52,1.43,14,11.21,16.48,22.48,13.74,7.54-1.83,13.32-6.3,18.06-12.37,3.66-4.7,6.74-4.61,9.22.68a38.9,38.9,0,0,1,.11,34.06c-2.32,5-5.84,5.13-9.35.59-6.79-8.77-15.47-13.67-26.73-13.38-6.79.17-12.22,4.45-13.12,11.17-3.49,26.22-13.09,49.78-29.44,70.67-4.64,5.92-3.55,13.47,1.91,18.58a31.62,31.62,0,0,0,25.87,8.65c8.42-.83,10.46,2.05,6.71,9.78A40.35,40.35,0,0,1,433,363.45c-2.45,1.06-6.08,1.44-8.25.33-1.3-.67-1.29-4.85-1.07-7.39.92-10.67-2.32-19.75-10.2-26.92-5.25-4.79-11.53-4.67-17.66.09-17.17,13.36-36.55,21.79-57.73,26.32a69.39,69.39,0,0,1-8.09,1.38c-14.86,1.35-16.17,11.48-14,21.75,1.65,7.74,6.24,13.78,12.55,18.61,4.85,3.71,4.6,7-1,9.49a39.29,39.29,0,0,1-33.55-.26c-5.22-2.42-5.38-5.71-.84-9.25,8.71-6.81,13.8-15.38,13.45-26.7-.21-7-4.78-12.44-11.73-13.31a139.14,139.14,0,0,1-69.65-28.78c-6.6-5.15-14.3-4.06-19.9,2.36-6.25,7.17-8.71,15.56-7.77,25.05.81,8.25-1.91,10.31-9.32,6.81a41.56,41.56,0,0,1-21.06-21.26c-3.07-7-.62-9.8,6.8-9,9.33,1,17.92-1.09,25.21-7.31,6.73-5.76,7.83-13.24,2.54-20.29-15.37-20.46-25.27-43.06-28.41-68.6-1.2-9.73-9.19-14.18-19.92-11.59a33.41,33.41,0,0,0-19.29,12.6c-4.05,5.31-7.65,5-10.32-1.12-4.5-10.36-4.38-21-.43-31.49,2.57-6.79,6.33-7.15,10.89-1.59,6.27,7.64,14,12.41,24.2,12.42,8.39,0,13.9-4.34,15-12.61,3.28-25.28,13.06-47.76,28.4-68,5.81-7.65,4.76-14.91-2.6-21.14C192.82,108.64,186,106.45,176.07,107.57Z"/><path class="cls-2" d="M251.22,186c-9.66,0-16.81-6.94-16.82-16.47,0-9.35,6.86-16.44,16.08-16.6a16.52,16.52,0,0,1,16.92,16.51A16.25,16.25,0,0,1,251.22,186Z"/><path class="cls-2" d="M264.92,158.37c-2.18-3.7-4.57-6-4.25-7.7s3.17-4.23,5.11-4.43c1.36-.14,4.32,3,4.28,4.67C270,152.89,267.54,154.8,264.92,158.37Z"/><path class="cls-1" d="M364.55,164.46c1.34-28.8-23.45-52.25-53.6-53.59-29.47-1.34-53.59,24.12-53.59,53.59,0,24.12,17.42,44.89,37.51,51.59V325.26h67v-20.1h-33.5v-13.4h33.5v-20.1H327.7V216.05C347.8,209.35,363.88,187.91,364.55,164.46Zm-54.78,16.6a16.75,16.75,0,1,1,16.75-16.75A16.75,16.75,0,0,1,309.77,181.06Z"/></svg>