<svg id="Layer_1" data-name="Layer 1" xmlns="http://www.w3.org/2000/svg" viewBox="0 0 621.96 541.87"><defs><style>.cls-1{fill:#f0f;}.cls-2{fill:#fff;}</style></defs><title>heycovid-logos</title><path class="cls-1" d="M311,58.13C207.32-45.53,0-10.29,0,161.79S311,541.87,311,541.87s311-208,311-380.08S414.64-45.53,311,58.13Z"/><path class="cls-2" d="M176.07,106.93c-3-.84-8.3-1.21-8.59-2.61-.66-3.2.42-7.28,2.07-10.31a39.43,39.43,0,0,1,19.52-18c7.26-3.07,9.76-1,8.93,6.59a31.82,31.82,0,0,0,8.42,26c5.46,6,12.55,7,19,2.14A146.89,146.89,0,0,1,295.15,82c7.14-1,11.3-6.22,11.44-13.42.21-10.8-4.47-19.21-12.71-25.89-5.29-4.29-5.13-7.6,1-10.21a39.32,39.32,0,0,1,32,0c6.4,2.78,6.61,5.8,1.24,10.09-8.46,6.76-13.26,15.28-12.8,26.38.28,6.92,4.25,12.13,11.13,13.06a145.3,145.3,0,0,1,70.71,29.38c6.06,4.68,14,3.37,19-2.35,6.48-7.3,9.31-15.9,8-25.53-1.2-9,3.71-9.77,10.13-6.42,9,4.67,16,11.4,20,20.73a11.42,11.42,0,0,1,0,8.2c-.45,1.07-4.53,1-6.9.76-10.63-1-19.8,2.14-27.14,9.81-5.18,5.42-4.86,12.11.51,19.19A137.11,137.11,0,0,1,446.59,193c.49,2.5,1,5,1.25,7.53,1.43,14,11.21,16.48,22.48,13.74,7.54-1.83,13.32-6.3,18.06-12.38,3.66-4.69,6.74-4.6,9.22.69a38.9,38.9,0,0,1,.11,34.06c-2.32,5.05-5.84,5.13-9.35.59-6.79-8.77-15.47-13.67-26.73-13.39-6.79.17-12.22,4.46-13.12,11.17-3.49,26.23-13.09,49.79-29.44,70.67-4.64,5.93-3.55,13.47,1.91,18.59A31.62,31.62,0,0,0,446.85,333c8.42-.84,10.46,2.05,6.71,9.77A40.41,40.41,0,0,1,433,362.82c-2.45,1.06-6.08,1.44-8.25.33-1.3-.67-1.29-4.85-1.07-7.39.92-10.68-2.32-19.75-10.2-26.93-5.25-4.79-11.53-4.67-17.66.1-17.17,13.35-36.55,21.79-57.73,26.32a67.31,67.31,0,0,1-8.09,1.37c-14.86,1.36-16.17,11.48-14,21.75,1.65,7.74,6.24,13.79,12.55,18.62,4.85,3.71,4.6,7-1,9.48a39.29,39.29,0,0,1-33.55-.26c-5.22-2.42-5.38-5.7-.84-9.25,8.71-6.8,13.8-15.38,13.45-26.69-.21-7-4.78-12.44-11.73-13.31a139.23,139.23,0,0,1-69.65-28.78c-6.6-5.15-14.3-4.06-19.9,2.36-6.25,7.17-8.71,15.55-7.77,25,.81,8.26-1.91,10.31-9.32,6.82a41.6,41.6,0,0,1-21.06-21.26c-3.07-7-.62-9.8,6.8-9,9.33,1,17.92-1.09,25.21-7.32,6.73-5.75,7.83-13.24,2.54-20.29-15.37-20.45-25.27-43.05-28.41-68.59-1.2-9.73-9.19-14.18-19.92-11.6a33.5,33.5,0,0,0-19.29,12.6c-4.05,5.31-7.65,5-10.32-1.11-4.5-10.36-4.38-21-.43-31.49,2.57-6.8,6.33-7.15,10.89-1.6,6.27,7.65,14,12.42,24.2,12.42,8.39,0,13.9-4.33,15-12.6,3.28-25.28,13.06-47.76,28.4-68,5.81-7.65,4.76-14.91-2.6-21.15C192.82,108,186,105.82,176.07,106.93ZM296,174.38a37.61,37.61,0,0,0-37.88-37.58c-20.79.06-37.92,17.1-38,37.75s17.51,38.16,38.38,38.07C279,212.52,296,195.19,296,174.38Zm14.82,115.89c2.56,1.59,4.48,3,6.56,4,16.5,8.47,36.11-.82,39.09-18.48.94-5.59-1.32-10-5.85-10.4-5.16-.43-7.6,2.47-8.46,7.58-1,6.26-5.27,9.52-11.38,9.74-6.4.22-10.71-2.83-12.47-9.16-1-3.8-3-6.43-7.2-6.48-4.41-.05-6.51,2.48-7.52,6.69-1.43,6-6.31,9.21-12.71,8.93-6.05-.27-10.41-3.84-11.25-9.89-.67-4.87-3-7.7-7.94-7.47-4.43.21-7.23,4.92-6.32,10.21,1.79,10.42,7.85,17.29,17.88,20.49S302.48,296.71,310.79,290.27Zm83.72-69.68c-8.43,1.43-16.13,2.58-23.74,4.16-1.61.34-2.89,2.3-4.32,3.51,1.28,1.33,2.34,3.37,3.89,3.87,14.94,4.79,30,5.16,44.83-.31,1.41-.53,3.29-2.31,3.28-3.49s-1.92-3.11-3.3-3.44C408.19,223.2,401.14,221.93,394.51,220.59Zm-166,.11c-6.78,1.21-13.71,2.19-20.49,3.8-1.87.45-3.29,2.77-4.91,4.22,1.56,1.3,2.93,3.2,4.73,3.79,14.17,4.62,28.46,4.14,42.65.1,1.78-.5,3.12-2.58,4.67-3.93-1.66-1.45-3.13-3.77-5-4.2C243.17,222.9,236,222,228.55,220.7Z"/><path class="cls-1" d="M296,174.38c0,20.81-17,38.14-37.46,38.24-20.87.09-38.42-17.3-38.38-38.07s17.17-37.69,38-37.75A37.61,37.61,0,0,1,296,174.38Zm-44.75,11a16.23,16.23,0,0,0,16.18-16.55,16.52,16.52,0,0,0-16.92-16.51c-9.22.16-16.09,7.24-16.08,16.6C234.41,178.45,241.56,185.44,251.22,185.38Zm13.7-27.64c2.62-3.57,5.09-5.49,5.14-7.46,0-1.64-2.92-4.81-4.28-4.67-1.94.19-4.76,2.58-5.11,4.43S262.74,154,264.92,157.74Z"/><path class="cls-1" d="M310.79,290.27c-8.31,6.44-17.42,9-27.57,5.8S267.13,286,265.34,275.58c-.91-5.29,1.89-10,6.32-10.21,4.92-.23,7.27,2.6,7.94,7.47.84,6.05,5.2,9.62,11.25,9.89,6.4.28,11.28-2.91,12.71-8.93,1-4.21,3.11-6.74,7.52-6.69,4.16.05,6.15,2.68,7.2,6.48,1.76,6.33,6.07,9.38,12.47,9.16,6.11-.22,10.34-3.48,11.38-9.74.86-5.11,3.3-8,8.46-7.58,4.53.38,6.79,4.81,5.85,10.4-3,17.66-22.59,26.95-39.09,18.48C315.27,293.24,313.35,291.86,310.79,290.27Z"/><path class="cls-2" d="M251.22,185.38c-9.66.06-16.81-6.93-16.82-16.46,0-9.36,6.86-16.44,16.08-16.6a16.52,16.52,0,0,1,16.92,16.51A16.23,16.23,0,0,1,251.22,185.38Z"/><path class="cls-2" d="M264.92,157.74c-2.18-3.71-4.57-6-4.25-7.7s3.17-4.24,5.11-4.43c1.36-.14,4.32,3,4.28,4.67C270,152.25,267.54,154.17,264.92,157.74Z"/><path class="cls-1" d="M400.51,183.92a55.58,55.58,0,0,0-6.17-3.43c-12-5.67-32.62-9.73-62.7,3.08l-3.92-9.2c33.49-14.27,57-9.46,70.88-2.92a61.77,61.77,0,0,1,7.33,4.07Z"/></svg>